<svg xmlns="http://www.w3.org/2000/svg" viewBox="0 0 365.14 518.88"><defs><style>.cls-1{fill:#73cde0;}.cls-2{fill:#e2f2f6;}.cls-3{fill:#c0dce5;}.cls-4{fill:#63b0c1;}.cls-5{fill:none;stroke:#74cde1;stroke-miterlimit:10;stroke-width:1.07px;}</style></defs><title>sportOfBusinessclipboard</title><g id="Layer_2" data-name="Layer 2"><rect class="cls-1" y="38.44" width="365.14" height="480.44" rx="5.39" ry="5.39"/></g><g id="paper2"><polygon class="cls-2" points="352.92 506.18 28.42 506.68 23.92 71.18 345.92 71.18 352.92 506.18"/></g><g id="paperTop"><polygon class="cls-2" points="24.85 70.76 347.45 70.1 347.93 296.32 351.47 422.18 305.01 484.93 259.74 509.13 28.2 507.26 24.85 70.76"/><path class="cls-3" d="M259.66,509.06s29.95-17.8,37.51-62.4c21.47-1.22,38.83-4.48,54.14-24.18C327.19,463.88,318.28,503.4,259.66,509.06Z"/></g><g id="clip"><polygon class="cls-4" points="278.66 86.48 105.7 86.48 115.31 25.94 269.05 25.94 278.66 86.48"/><rect class="cls-4" x="163.35" width="57.65" height="43.24" rx="13.87" ry="13.87"/><line class="cls-5" x1="172.96" y1="19.22" x2="211.4" y2="19.22"/><line class="cls-5" x1="172.96" y1="28.83" x2="211.4" y2="28.83"/><line class="cls-5" x1="172.96" y1="38.44" x2="211.4" y2="38.44"/></g></svg>